<svg version="1.1" id="图层_1" xmlns="http://www.w3.org/2000/svg" x="0" y="0" width="800" height="398.17" xml:space="preserve"><path d="M361.973 356.763c2.58 2.149 5.508 3.111 8.413 2.784.548-.067 1.06-.186 1.579-.328 7.256-2.038 12.098-11.919 11.271-23.021-.405-5.709-2.334-10.857-5.214-14.585l-.838 1.632c2.425 3.384 3.98 8.007 4.361 13.08.836 10.958-4.122 20.7-11.342 21.536-2.456.287-4.932-.567-7.142-2.419-3.96-3.274-6.614-9.314-7.142-16.052a17.95 17.95 0 0 0-.019-1.21l-1.672.091c.015.394-.027.801.01 1.222.547 7.236 3.429 13.674 7.735 17.27z"/><path d="M360.603 359.128c2.879 2.514 6.147 3.721 9.482 3.429.713-.035 1.425-.202 2.133-.402 8.068-2.242 13.556-13.286 12.84-25.626-.435-6.649-2.638-12.685-5.951-16.988l-.84 1.623c2.863 3.969 4.712 9.469 5.08 15.473.761 12.524-5.246 23.59-13.422 24.21-2.826.258-5.684-.794-8.23-3.025-4.475-3.895-7.454-10.895-7.904-18.701-.041-.288-.013-.547-.021-.827l-1.689.069c.018.276-.029.559.015.836.469 8.29 3.68 15.697 8.507 19.929z"/><path d="M363.352 354.406c2.287 1.779 4.855 2.504 7.402 2.102.303-.073.653-.136.985-.219 6.463-1.837 10.637-10.616 9.707-20.423-.436-4.779-2.076-9.078-4.529-12.165l-.853 1.68c1.958 2.776 3.328 6.517 3.707 10.627.871 9.284-3.246 17.87-9.307 18.801-2.062.355-4.155-.263-6.094-1.742-3.392-2.664-5.725-7.679-6.293-13.444-.041-.52-.024-1.007-.037-1.52l-1.68.07c.023.544-.006 1.042.042 1.609.603 6.195 3.181 11.681 6.95 14.624z"/><path d="M364.701 352.049c2.008 1.415 4.212 1.915 6.399 1.431.153-.022.258-.057.406-.091 5.614-1.602 9.17-9.449 8.144-17.861-.448-3.859-1.85-7.234-3.802-9.707l-.891 1.682c1.544 2.168 2.645 4.997 3.01 8.211.094.632.103 1.285.145 1.948a34.362 34.362 0 0 0-.252-2.494c-.473-2.88-1.585-5.39-3.103-7.259l-.868 1.699c.901 1.339 1.621 2.948 2.057 4.817-.459-1.778-1.251-3.326-2.221-4.472l-.866 1.621a9.538 9.538 0 0 1 1.186 2.444 6.748 6.748 0 0 0-1.368-2.136l-.818 1.56c-1.516-1.452-3.743-1.181-4.941.794-.663 1.544-.508 3.511-.508 3.511l-1.915.066c.033 1.104.182 2.175.572 3.214 1.069 3.029 3.462 4.649 5.748 4.015.521-.14 1.031-.422 1.493-.766 1.118-.891 1.848-2.336 2.229-3.945-.447 2.563-1.685 4.698-3.41 5.517-1.103.528-2.225.449-3.283-.213-1.544-.925-2.794-2.878-3.341-5.356a16.09 16.09 0 0 1-.272-2.458l-1.685.066c.022.925.093 1.841.315 2.791.683 2.905 2.179 5.264 4.12 6.425 1.306.765 2.674.984 4.014.601.301-.076.579-.199.844-.316 2.531-1.239 4.195-4.409 4.518-8.023-.321 4.585-2.372 8.486-5.417 9.447l-.173.06c-1.281.363-2.645.114-3.918-.693-2.207-1.425-3.894-4.455-4.473-8.104a12.298 12.298 0 0 1-.199-2.147l-1.688.044c.021.797.078 1.607.22 2.354.661 4.13 2.608 7.574 5.26 9.292 1.637 1.066 3.491 1.374 5.278.895l.206-.066c4.048-1.301 6.767-6.688 6.656-12.672.153 6.721-2.794 12.774-7.093 13.98l-.302.073c-1.698.378-3.457-.001-5.046-1.167-2.822-2.037-4.871-6.057-5.455-10.79-.053-.63-.066-1.249-.094-1.859l-1.677.074c.021.647.025 1.313.101 1.969.642 5.196 2.96 9.689 6.158 11.994zm6.575-9.125c-1.633 1.3-3.683.144-4.624-2.463-.038-.13-.043-.24-.09-.383.201.504.45 1.033.773 1.433.909 1.152 2.166 1.66 3.346 1.329a3.115 3.115 0 0 0 1.121-.609c-.164.22-.321.508-.526.693z"/><path d="M347.813 338.653c.316 8.156 2.699 15.746 6.726 21.376 4.103 5.724 9.391 8.784 14.915 8.57a12.723 12.723 0 0 0 3.28-.524c9.837-2.74 16.5-15.753 15.887-30.89-.338-8.134-2.715-15.707-6.749-21.341-4.091-5.745-9.378-8.792-14.901-8.578-1.106.042-2.18.2-3.28.513-9.827 2.745-16.525 15.767-15.878 30.874zm16.337-29.25c.97-.27 1.934-.408 2.888-.457 4.381-.161 8.584 2.14 12.119 6.297.872.925 1.348 1.594 1.348 1.594 3.838 5.382 6.127 12.623 6.45 20.411.573 14.147-5.75 26.679-14.689 29.2-.93.253-1.896.422-2.848.446-4.927.193-9.736-2.605-13.495-7.87-3.848-5.364-6.112-12.617-6.447-20.381-.581-14.181 5.741-26.739 14.674-29.24z"/><path d="M359.23 361.48c3.193 2.89 6.838 4.295 10.526 4.105.932-.065 1.825-.201 2.722-.471 9.001-2.543 15.037-14.406 14.341-28.259-.357-7.567-2.787-14.537-6.57-19.51l-.849 1.668c3.306 4.648 5.399 11.017 5.742 17.922.619 12.865-5.005 24.253-13.13 26.541-.785.22-1.551.355-2.371.404-3.228.184-6.436-1.101-9.279-3.656-5.056-4.559-8.32-12.53-8.731-21.354-.024-.149.001-.316.018-.482l-1.711.085c-.007.17-.001.308.018.468.427 9.259 3.91 17.694 9.274 22.539z"/><path d="M784.963 25.941C759.762 14.89 728.636 4.944 716.374 1.818c-15.066-3.817-38.277-1.438-58.987 5.41-2.218.573-4.4 1.124-6.621 1.723L589.491 29.87l-.006-.216-292.271 29.979c-.783-.652-1.711-.995-2.817-.832-2.222.364-4.46 2.25-5.469 4.479L64.79 209.054 1.817 230.553a2.681 2.681 0 0 0-1.549 1.371 2.627 2.627 0 0 0-.129 1.996c.466 1.353 1.862 2.122 3.261 1.732l6.125-2.066c12.542-2.859 16.711-4.192 34.069 2.538 18.29 7.057 30.995 10.653 38.673 12.698 7.65 2.05 14.429 2.278 29.606-1.574 2.485-.626 10.035-2.861 20.795-6.146l27.979-7.967c10.183-3.137 21.293-6.587 32.869-10.162a69.24 69.24 0 0 0-.765 9.885c-.107 2.786.347 8.206.358 8.3.764 6.788 2.395 13.221 4.74 18.675 2.074 4.818 4.958 9.022 8.249 12.579 6.252 7.771 13.832 12 21.709 13.813.665.22 1.32.412 1.962.554l1.666 43.199c-2.745-1.083-5.594-1.575-8.472-1.325a19.55 19.55 0 0 0-3.407.607c-12.031 3.375-19.927 18.963-18.4 36.238.815 9.228 4.143 17.691 9.352 23.84 5.285 6.229 11.894 9.335 18.602 8.765a17.926 17.926 0 0 0 3.378-.597c10.927-3.068 18.362-16.197 18.525-31.514l91.221-19.138c1.34 6.657 3.908 12.736 7.625 17.593 5.269 6.847 12.04 10.516 19.108 10.223 1.516-.047 3-.271 4.47-.694 12.497-3.507 21.017-19.151 20.269-37.175-.792-20.385-13.257-36.539-27.741-35.999-1.509.061-3 .279-4.468.691-4.101 1.158-7.782 3.654-10.822 7.085l-2.85-24.833c2.662-.088 4.906-.172 6.44-.164 16.822-.171 31.929-1.904 57.733-6.72 22.583-4.208 117.348-24.725 154.363-32.992l-.371.099c2.707-.45 2.589 1.957 3.363 4.097.751 2.151 1.318 3.103 2.26 2.994.877-.093 1.733-1.432.655-8.551 4.731-1.047 7.838-1.776 8.726-2.015 7.347-2.083 10.267-13.274 9.367-23.235a291.69 291.69 0 0 0-.198-1.996c31.979-5.857 75.042-13.764 81.744-15.129 2.922-.585 5.166-1.122 6.907-1.622 4.206-1.167 5.562-2.131 5.562-3.998a1.547 1.547 0 0 0-.591-1.221c-1.457-1.264-6.696-1.731-35.099 3.201-6.222 1.038-12.971 2.23-20.001 3.457-.89.159-1.778.296-2.668.463l.065-.201-39.525-10.802c-1.331-7.564-2.913-14.629-4.576-18.691-.275-.649-.555-1.338-.815-1.961-1.749-4.419-3.392-8.557-7.332-9.865-4.066-1.354-10.015.586-18.723 6.007-5.047 3.153-10.131 7.378-14.889 11.912l-.096-.024-.03.134c-12.813 12.243-23.324 26.709-25.213 29.395-.733-.12-2.112-.326-3.944-.618a5.498 5.498 0 0 1-.725-.144l-.01.064c-10.572-1.662-34.937-5.363-57.426-8.733l105.524-82.946.063-.014 5.649 3.892s207.753-65.977 221.627-70.207c16.145-4.942 22.19-11.691-.678-21.67zm-201.324 5.894L434.53 82.745l-135.428-21.24c-.081-.17-.185-.323-.268-.468l284.805-29.202zM300.284 63.594l130.801 20.51-99.03 33.829.379-.225c-1.139-1.969-24.527-41.778-32.15-54.114zm23.417 49.808-11.187-19.44-.982-3.3 16.318 28.811-2.936 1-10.365-19.566-.58-1.998 8.686 15.114a.634.634 0 0 0 .703.244.317.317 0 0 0 .12-.05c.286-.163.41-.52.223-.815zm-13.632-27.839-1.33-4.502a6116.503 6116.503 0 0 1 22.085 37.389l-1.795.629-18.96-33.516zm13.247 35.546-42.607 14.519 15.901-64.98 26.706 50.461zm-33.495-53.861c1.499-3.493 2.964-4.688 5.721-.298-3.169 3.998-3.938 8.308-5.249 13.755-4.497 18.845-9.304 37.607-13.94 56.448l-4.191 1.436c5.325-21.93 14.727-60.488 17.659-71.341zm-19.484 71.781.489.133-91.839 31.366L287.632 68.902c-4.293 16.454-16.686 67.623-17.295 70.127zm16.931-71.96L175.083 171.986 71.631 207.321 287.268 67.069zM225.93 281.286c-12.676-2.143-22.203-11.426-27.252-23.633-1.972-5.085-3.343-10.861-3.975-16.944-.006-.061-.349-5.113-.279-8.237.049-4.473.494-9.028 1.458-13.449.028-.085.029-.199.07-.3a57.74 57.74 0 0 1 .714-2.724c1.306-4.437 3.049-8.569 5.162-12.317 1.264-2.124 2.652-4.174 4.286-6.049 4.984-5.783 9.576-9.469 13.84-11.861 4.96-2.413 10.281-3.512 15.735-2.981 7.182.783 13.795 4.35 19.182 10.452.24.266.615.289.841.074.266-.227.303-.615.042-.871-5.581-6.322-12.483-10.067-19.943-10.85-.706-.068-1.367-.046-2.049-.078 1.843-.197 3.698-.288 5.443-.401l1.665-.061 7.329.158c8.04.475 19.865 1.721 30.712 2.828 9.34 1.008 18.126 1.938 23.156 2.229a103.227 103.227 0 0 1 28.993 5.929c.811.275 1.608.593 2.492.931 1.227.438 2.538.941 3.903 1.436l-4.642 8.441-71.177-2.459a.843.843 0 0 0-.886.825.864.864 0 0 0 .841.862l70.274 2.449-1.771 3.221-66.307-.453c-.452-.016-.826.357-.851.846.012.453.397.86.845.841l65.391.432-1.832 3.306-61.719-.455c-.452-.016-.826.357-.851.846.012.453.397.859.845.841l60.802.433-1.855 3.346-57.964-.455c-.452-.016-.826.357-.851.846.012.453.397.859.845.841l57.047.434-1.867 3.368-54.358-.441c-.452-.016-.826.357-.851.846.011.454.397.86.845.841l53.441.42-1.873 3.379-51.155-.454c-.452-.016-.826.357-.851.846.011.454.397.86.845.841l50.238.432-.091.163-1.86 3.33-48.341-.929c-.455.005-.855.367-.871.828.002.481.371.866.884.896l47.399.885-1.858 3.386-46.327-.785a.84.84 0 0 0-.843.851c-.027.452.355.858.82.87l45.427.752-1.864 3.345-44.289-.617a.921.921 0 0 0-.881.863.904.904 0 0 0 .871.841l43.357.624-1.868 3.407-42.696-.525c-.452-.017-.826.357-.851.846.011.453.397.86.845.84l41.76.5-1.866 3.401-41.64-.372c-.476-.004-.849.346-.847.813.007.459.369.875.857.863l40.681.379-1.876 3.405-40.123-.28a.832.832 0 0 0-.85.844c-.006.483.354.862.877.851l39.156.28-1.413 2.638-39.903-.225c-6.889 10.057-18.465 21.272-33.899 18.685zm33.716-116.425c.167.147.358.176.579.11a.88.88 0 0 0 .291-.151l8.866-10.152c.032.601.047 1.23.102 1.957l-21.419 22.867c-1.548-.096-2.978-.174-4.191-.186 4.815-5.158 20.472-22.023 25.65-27.835-.014.178-.1.342-.101.53-.022.232-.005.552-.05.835l-9.763 11.15c-.234.252-.187.639.036.875zm9.875-6.521-.021 1.554-18.572 19.674-1.259-.03 19.852-21.198zm67.819 8.262c.126.036.243.03.351.021a.626.626 0 0 0 .405-.407l2.897-9.006 1.196-.388-9.88 29.483c-.319.087-.652.209-.994.334l3.134-9.72c.101-.336-.084-.65-.406-.777a.616.616 0 0 0-.75.411l-3.385 10.541a28.74 28.74 0 0 1-1.133.411l9.677-29.431 1.105-.399-2.626 8.153a.648.648 0 0 0 .409.774zm47.682-18.568 38.726-.447.004-.01 1.146-.016.021.011 18.262-.211 116.024-95.476 4.06-1.117-117.143 96.337.256.006 38.734-11.611-13.115 13.336-25.365 17.485c-10.93-1.181-18.821-1.858-21.604-2.07l20.565-16.936-2.415.047-27.239 22.408 9.549-21.912-.572-.287-1.169.015-10.691 24.561-10.374 8.529c-5.895-.946-12.952-1.864-19.993-2.569l3.617-30.06-1.284-.013zm-24.17 24.14-1.196 12.703c-.418-.156-.843-.275-1.203-.401l-.082-.192 1.25-12.965c.391.172.803.469 1.231.855zm-1.054-2.587.299-2.966c.321.857.639 1.91.789 3.187-.296-.094-.591-.108-.918-.17-.054-.019-.11-.032-.17-.051zm-1.684-.039c-1.743-.036-3.59.195-5.342.555l6.429-11.67-1.087 11.115zm-.203 1.681-.999 10.577-5.469-9.322.164-.325c1.986-.587 4.293-.935 6.304-.93zm-5.096 11.597c-1.787-.356-4.274-.275-7.172.155l3.503-6.357 3.669 6.202zm-9.333.545c-.142.024-.302.067-.433.092 1.181-2.557 3.104-6.623 4.87-8.935l.238.409-4.675 8.434zm1.065 1.548c3.78-.647 6.891-.832 8.583-.338 1.906.531 3.384 2.381 3.417 4.319-.002.124-.061.248-.059.36-2.975-1.643-8.495-1.276-14.31-.011l2.369-4.33zm-4.577 4.866c-1.914.487-3.758 1.064-5.576 1.663-.103-.01-.203-.059-.304-.098-.862-.337-1.659-.651-2.509-.931a103.631 103.631 0 0 0-3.006-1.038c4.673-1.771 9.571-3.159 13.864-4.022l-2.469 4.426zm12.55 5.502c5.213-1.694 5.706-5.051 5.689-6.42-.007-1.049-.442-2.057-.964-2.981.042.034.126.036.164.057l-.058.084c5.118 3.481 9.217 10.49 10.562 18.025l-33.282-1.163 4.433-7.99c4.121 1.233 8.719 1.961 13.456.388zm8.919-7.983c7.412 2.591 16.231 6.002 20.183 7.75.813.349 1.697.706 2.579 1.077l-10.054 8.224-4.47-.327c-1.121-6.463-4.199-12.576-8.238-16.724zm2.884-.794c.249-.833.943-3.401.989-6.546.057.016.148.018.198.03.332 2.083.467 4.473.361 7.077-.524-.178-1.029-.382-1.548-.561zm5.053 58.991-.002-1.97 9.741.326-1.783 1.821-7.956-.177zm6.537 1.617-1.808 1.906-4.763-.148.012-1.965 6.559.207zm-6.505-4.998.011-2.012 12.887.491-1.783 1.838-11.115-.317zm.006-3.382.05-2.016 16.012.644-1.758 1.812-14.304-.44zm.042-3.407.03-2.052 19.153.878-1.725 1.801-17.458-.627zm.057-3.401.011-2.071 22.234 1.098-1.703 1.756-20.542-.783zm.016-3.448.018-2.059 25.344 1.368-1.707 1.729-23.655-1.038zm.052-3.425.015-2.091 28.417 1.625-1.677 1.742-26.755-1.276zm1.282-15.811 12.712.9-2.671 1.853-11.186-.692.01-1.152 1.135-.909zm-1.12-1.406.042-2.046 2.452.154-2.307 1.9-.187-.008zm28.339-9.085a5.496 5.496 0 0 0 1.789-.838c1.302-.951 2.055-2.093 2.252-3.387.159-.88-.006-1.647-.225-2.3.433-.005.838-.023 1.23-.014.904.512 1.743 1.481 2.452 2.734l-15.294 10.546-13.75-.975 9.392-7.729c4.442 1.675 8.968 2.875 12.154 1.963zm-7.766-5.575 1.275-1.063c2.789.06 5.833.08 8.504.105.239.456.515 1.211.403 2.047-.132.821-.705 1.581-1.599 2.252a.144.144 0 0 1-.032.018c-.521-.629-1.484-1.547-3.409-2.525-1.373-.698-3.256-.913-5.142-.834zm16.035 3.329a20.112 20.112 0 0 1 1.451 6.496c.108 1.841.118 3.027.202 3.742l-14.98-1.062 13.327-9.176zm-.656-4.341c.453 0 .829-.002 1.121-.02.336.019 1.176.074 2.445.248l-2.274 1.58a13.398 13.398 0 0 0-1.292-1.808zm-26.587 23.103 2.668-1.844 25.476 1.742-1.639 1.667-26.505-1.565zm25.066 3.044-1.643 1.666-28.025-1.546 2.748-1.886 26.92 1.766zm-20.484-6.209 2.609-1.786 23.977 1.748-1.583 1.605-25.003-1.567zm4.486-3.088 2.572-1.791 22.695 1.645-1.687 1.723-23.58-1.577zm-.131-1.941-2.596 1.806-13.096-.903 2.249-1.88 13.443.977zm-8.981 6.199-2.749 1.869-6.633-.377.027-2.123 9.355.631zm-4.568 3.133-2.763 1.917-2.078-.114.022-2.1 4.819.297zm-4.58 5.24 2.773-1.944 28.429 1.733-1.675 1.711-29.527-1.5zm30.177 3.019 13.611.797-1.973 1.528-13.303-.63 1.665-1.695zm1.432-1.466 1.665-1.666 14.371.876-1.925 1.523-14.111-.733zm3.115-3.17 1.615-1.646 15.166.989-1.885 1.484-14.896-.827zm3.092-3.142 1.589-1.628 15.918 1.104-1.858 1.466-15.649-.942zm3.087-3.114 1.557-1.601 16.644 1.183-1.797 1.434-16.404-1.016zm3.053-3.117 1.647-1.701 17.512 1.275-2.024 1.567-1.087-.082-16.048-1.059zm1.125-3.438-5.311-.384c-.023-.7-.096-1.936-.201-3.964a22.194 22.194 0 0 0-1.731-7.388l4.045-2.813c3.592.488 8.92 1.227 15.353 2.165l-12.155 12.384zm-3.603-16.337c-2.364-.296-3.957-.458-4.482-.468l7.429-17.056 8.993-7.416c1.805.476 8.89 2.178 18.647 3.919l-30.587 21.021zm-2.635-8.975c-1.182-.196-2.511-.447-3.919-.678l6.616-5.47-2.697 6.148zm-.581 1.396-3.144 7.192c-2.843-.008-7.263-.008-11.417-.055l8.798-7.23c2.811.092 4.838.09 5.763.093zm-17.128 7.112c-3.418-.053-6.297-.18-7.377-.318l-2.45-.346.949-7.777c.545.056 1.016.117 1.61.163 6.257.553 11.779.86 16.081 1.023l-8.813 7.255zm-7.639 1.393c.92.151 3.03.233 5.613.283l-1.866 1.539c-.953.228-1.794.508-2.464.862a79.116 79.116 0 0 1-2.408-1.024c-.691-.317-1.559-.651-2.496-1.037l1.082-1.014 2.539.391zm-3.957-1.4.019.013-1.426 1.307a416.636 416.636 0 0 0-10.516-4.07c.142-2.753.01-5.206-.281-7.38 2.268.35 6.471.931 13.229 1.574l-1.025 8.556zm-10.127 59.913 3.403.055-1.885 1.9-1.535-.016.017-1.939zm2.264 3.402 6.075.131-2.322 1.839-5.595-.079 1.842-1.891zm1.4-1.413 1.841-1.889 6.949.182-2.296 1.801-6.494-.094zm3.231-3.309 1.833-1.833 7.814.225-2.246 1.771-7.401-.163zm3.224-3.276 1.805-1.823 8.672.288-2.209 1.742-8.268-.207zm3.195-3.25 1.796-1.835 9.5.38-2.168 1.711-9.128-.256zm3.19-3.263 1.736-1.797 10.398.458-2.137 1.647-9.997-.308zm3.158-3.221 1.754-1.783 11.165.521-2.048 1.655-10.871-.393zm3.18-3.215 1.696-1.731 12.021.592-2.032 1.583-11.685-.444zm3.144-3.215 1.679-1.735 12.816.704-2.004 1.591-12.491-.56zm13.047 1.994 14.833.747 91.829 3.998c16.128.713 32.281 1.304 48.417 1.959.279.342.594.64.854.964.044.09.088.171.143.275.21.332.38.619.549.973-16.974-.853-33.975-1.745-50.988-2.495l-91.81-4.202-15.834-.638 2.007-1.581zm154.978 4.078c-.098-.081-.16-.132-.294-.24l-.581-15.413c.437-.077.902-.172 1.4-.261l.466 16.8c-.317-.296-.634-.598-.991-.886zm-.533 1.942c.028.033.088.084.116.11-15.935-.853-31.895-1.764-47.848-2.502l-91.795-4.586-12.973-.553 1.967-1.542 12.002.591 91.841 4.37c14.641.729 29.316 1.312 43.929 1.962.342.31.697.602 1.048.816.669.382 1.213.864 1.713 1.334zm-3.482-6.12-.417-10.808c.437-.099.894-.186 1.388-.289l.367 13.098a13.837 13.837 0 0 1-1.338-2.001zm.162 3.323c-14.424-.828-28.885-1.696-43.34-2.443l-91.761-4.92-10.153-.474 1.935-1.518 9.23.516 91.783 4.733c13.607.701 27.234 1.288 40.803 1.917.479.863.976 1.569 1.503 2.189zm-42.253-5.268-91.759-5.245-7.339-.383 1.892-1.493 6.452.405 91.795 5.054c12.803.715 25.61 1.301 38.392 1.965.309.754.634 1.472.988 2.144-13.455-.814-26.932-1.663-40.421-2.447zm38.576-7.348c-.094-.326-.17-.602-.264-.909.323-.059.718-.13 1.216-.214l.11 4.473a379.076 379.076 0 0 0-1.062-3.35zm-.19 4.872c.241.745.508 1.425.777 2.107-12.677-.817-25.377-1.708-38.062-2.443l-91.751-5.617-4.58-.235 1.843-1.482 3.717.228 91.765 5.429c12.12.742 24.176 1.34 36.291 2.013zm-36.211-3.143-91.723-5.962-1.847-.124 1.831-1.424.976.063 91.765 5.748c11.43.765 22.872 1.365 34.289 2.028.222.713.445 1.418.678 2.118-11.993-.828-23.983-1.7-35.969-2.447zm1.07-2.83-90.807-6.271 1.809-1.4 90.018 5.984c10.758.765 21.568 1.36 32.325 2.045.149.458.292.899.445 1.385.064.221.132.446.216.691-11.32-.792-22.681-1.662-34.006-2.434zm1.085-2.824-88.126-6.421 2.009-1.58 116.811 8.413.365.021c.319.491.621 1.063.846 1.762.026.06.07.143.112.217-10.703-.783-21.36-1.652-32.017-2.412zm-86.522-9.609-17.948-1.287 12.036-12.241c5.815.825 12.455 1.807 19.495 2.857L435.04 208.63zm-6.419-15.355c-5.867-.847-10.926-1.588-14.732-2.065l30.448-20.964c1.941.322 3.914.643 5.95.922l-21.666 22.107zm20.531-26.434 16.468-11.317-11.667 11.886c-.747-.094-1.541-.201-2.292-.273-.875-.092-1.66-.188-2.509-.296zm-68.17 11.4c-5.017-.442-9.883-.772-14.232-.866-.798-3.216-2.048-5.475-3.373-6.576-.17-.147-.396-.224-.61-.342l2.042-21.364 1.629-.54 18.125-.225-3.581 29.913zM364.274 149.3l.08-.018-.102.051.022-.033-2.386.793 18.996-34.398 2.294-.65-18.904 34.255zm-1.888 24.856c.622 1.184 1.118 2.632 1.203 4.26.218 3.453-.565 6.594-.82 7.55-.507-.184-1.009-.354-1.468-.529l1.085-11.281zm-11.854-3.453a.613.613 0 0 0-.057.016l-7.079-12.123.865-2.555 17.625-5.947-11.354 20.609zm-3.513 2.306c-1.857 2.143-3.707 5.91-5.574 9.91l-.455.969a74.617 74.617 0 0 0-6.687 1.774l7.315-21.817 5.401 9.164zm-17.012 5.411c-.377-3.146-1.163-10.864-1.309-17.085l7.741-2.587-6.432 19.672zm-.604 1.701-2.667 8.18c-.243.12-.52.2-.758.279a115.967 115.967 0 0 0-11.004-2.586l-.935-1.049c8.095-2.532 13.568-4.23 15.364-4.824zm-20.349-2.404.543 1.935-9.992-11.029c3.655-.818 6.846-.491 10.064 2.764 2.437 2.432 4.114 4.351 5.07 5.511l-5.685.819zm3.208 7.775-1.739-.208-.02-.058-11.415-13.196a.62.62 0 0 0-.858-.056c-.255.216-.286.59-.065.865l10.612 12.229-1.713-.241c-1.703-2.039-12.985-15.612-19.277-22.08l-1.067-1.118c-5.946-6.112-8.086-8.209-9.772-7.731-1.555.432-1.399 2.697-1.309 3.688.318 5.005 1.224 20.221 1.482 24.357l-4.837-.712a689.352 689.352 0 0 0-.905-19.34c-.052-1.472-.153-2.736-.195-3.891l.006-6.616c.29-1.48 1.123-2.559 2.303-2.897 1.323-.383 2.982.056 4.829 1.186 4.19 2.546 9.621 8.704 15.37 15.2 1.365 1.566 2.791 3.124 4.2 4.685l14.37 15.934zm28.749 153.512-44.829 9.864c.048-.12.088-.225.063-.365l-8.393-61.969c1.873-.085 3.735-.159 5.648-.246 1.457-.06 2.911-.138 4.378-.195l43.194 47.547a53.698 53.698 0 0 0-.061 5.364zm-102.98-1.755-.011-.232c.694.633 1.402 1.285 2.032 2.044 1.69 1.965 3.081 4.252 4.309 6.722l-.102.156c-1.689-3.382-3.786-6.326-6.228-8.69zm5.453 10.111-.058.109c-1.111-2.413-2.357-4.71-3.909-6.653-.475-.594-.965-1.091-1.483-1.609l.011-.131c.488.572.975 1.134 1.473 1.74 1.545 1.922 2.841 4.173 3.966 6.544zm-2.079-9.44a29.924 29.924 0 0 0-3.366-3.328l-.916-44.74 22.871 27.713-14.579 26.423c-1.203-2.198-2.46-4.26-4.01-6.068zm-6.806-43.223 2.767 67.357-1.152.213-1.615-67.57zm.438 67.876-1.318.248-2.223-75.03c.031.019.029.033.064.042l3.477 74.74zm20.212-56.323c1.797 1.137 3.675 2.608 5.548 4.503l22.117 26.75c.29.969.677 2.232 1.08 3.52l-28.745-34.773zm27.176 34.762c-1.332-1.17-3.224-3.123-5.161-5.18l-26.397-31.997c.451.213.904.457 1.374.703l30.184 36.474zm-37.821-52.628c7.278-.244 18.963-.698 32.245-1.283l-13.361 24.179-18.884-22.896zm1.319 65.422c.531 1.937.998 3.944 1.278 6.037l-.23.036c-.288-2-.678-3.942-1.177-5.866l.129-.207zm.832-1.566.123-.18a47.555 47.555 0 0 1 1.71 7.474l-.19.029a44.61 44.61 0 0 0-1.643-7.323zm1.227-2.22 15.597-28.068 23.926 28.973-37.251 8.222a47.083 47.083 0 0 0-2.272-9.127zm19.093-34.376 14.54-26.211 7.103 52.428-21.643-26.217zm15.881-28.72.095-.109c.064-.014.164-.016.218-.021l7.883 57.988-.408-.493-7.788-57.365zm1.526-.188a.987.987 0 0 0 .285-.023l7.464 55.012c.054.328.373.579.693.548.017-.006.028-.01.083-.023a.647.647 0 0 0 .435-.682l-7.469-54.886a.552.552 0 0 1 .195-.031l8.432 62.108a.806.806 0 0 0 .262.454l-.059.02-2.183-2.692-8.138-59.805zM340.42 325.7c-.854-.663-11.533-9.511-18.385-15.612l-40.942-45.049 1.376-.054 19.792 22.312a.58.58 0 0 0 .61.193c.077-.023.156-.051.212-.135a.568.568 0 0 0 .067-.853l-19.152-21.582 2.965-.108 53.948 60.071c.114.678.012 1.269-.491.817zm2.566-95.546-3.928 3.235-21.042-.385 1.824-3.352 23.146.502zm5.948-4.937-3.931 3.241-24.207-.52 1.834-3.33 26.304.609zm-11.92 9.827-3.996 3.315-17.794-.308 1.834-3.353 19.956.346zm-6.001 5.009-4.041 3.261-14.562-.188 1.872-3.385 16.731.312zm-6.059 4.949-4.041 3.342-11.313-.146 1.874-3.365 13.48.169zm-6.064 5.029-4.106 3.331-7.989-.045 1.859-3.393 10.236.107zm-6.115 5.037-4.121 3.377-4.66-.039 1.866-3.398 6.915.06zm-6.172 5.083-3.162 2.585-1.842.011 1.441-2.645 3.563.049zm-.633 2.595 3.165-2.601 2.09.025-3.776 2.589-1.479-.013zm5.207-4.31 4.08-3.356 3.263.023-4.88 3.355-2.463-.022zm6.145-5.053 4.051-3.327 4.407.042-4.827 3.318-3.631-.033zm6.095-5.024 4.034-3.332 5.553.099-4.777 3.288-4.81-.055zm6.089-5.019 4.002-3.308 6.63.124-4.711 3.26-5.921-.076zm6.02-4.972 3.971-3.272 7.819.143-4.752 3.247-7.038-.118zm6.006-4.989 3.961-3.228 8.865.203-4.629 3.206-8.197-.181zm5.982-4.875 3.926-3.261 9.975.248-4.632 3.173-9.269-.16zm3.425-4.921-27.364-.665 1.844-3.327 29.441.764-3.921 3.228zm-24.571-5.698 1.785-3.298 32.582.925-3.89 3.18-30.477-.807zm2.73-5.004 1.804-3.282 35.67 1.08-3.849 3.183-33.625-.981zm-97.322 183.541c-1.008.297-2.04.481-3.086.592-6.142.494-12.221-2.403-17.16-8.204-4.998-5.871-8.182-14.019-8.956-22.884-1.444-16.462 5.952-31.276 17.188-34.428a16.288 16.288 0 0 1 3.102-.558c2.853-.28 5.663.265 8.402 1.437l.067 1.892c-2.37-1.047-4.827-1.575-7.329-1.385-.854.069-1.736.264-2.576.501-10.026 2.795-16.588 16.678-15.217 32.235 1.508 17.08 11.956 30.208 23.307 29.245.87-.083 1.718-.24 2.594-.484 8.904-2.503 14.946-13.717 15.244-27.084l.215-.049c-.137 6.52-1.554 12.681-4.364 17.69-3.497 6.217-8.524 9.893-14.173 10.372-11.699 1.016-22.505-12.277-24.023-29.602a53.53 53.53 0 0 1-.199-3.967.6.6 0 0 0-.6-.604c-.361.007-.61.271-.604.602 0 1.326.054 2.714.173 4.086 1.612 17.988 12.98 31.763 25.364 30.708a16.199 16.199 0 0 0 2.981-.526c4.821-1.356 9.079-5 12.133-10.464 2.938-5.224 4.412-11.719 4.527-18.545l.319-.07c-.279 14.398-7.204 26.683-17.329 29.494zm-5.541-28.115c-.06-.1-.121-.171-.148-.316-.209-.967.526-1.915 1.389-2.152.014.001.014.001.024-.003l113.45-25.042c.058.787.163 1.716.307 2.566l-115.022 24.947zm81.691-82.713c12.139-.525 23.634-1.016 32.413-1.318l4.166 34.218c-.741 1.813-1.407 3.723-1.911 5.729l-34.668-38.629zm32.689-13.209.466-.489 5.177 42.895c-.148.267-.247.529-.377.777l-5.266-43.183zm9.994 38.698c3.044-3.791 6.809-6.527 11.051-7.713a16.53 16.53 0 0 1 4.087-.648c13.526-.473 25.199 14.896 25.998 34.351.685 17.291-7.336 32.217-19.07 35.496a17.08 17.08 0 0 1-4.085.652c-6.531.241-12.787-3.177-17.691-9.6-3.703-4.846-6.295-10.968-7.522-17.719-.021-.071-.04-.167-.057-.247a47.558 47.558 0 0 1-.725-6.795c-.077-1.46-.022-2.926.024-4.37l.101-1.168a44.141 44.141 0 0 1 1.02-7.205l.133-.415-.047-.014c.502-2.179 1.143-4.239 1.958-6.195l.268-.603c1.169-2.736 2.65-5.276 4.366-7.466l.197-.277-.006-.064zm-1.621-.474c-.599.79-1.19 1.62-1.707 2.52l-5.076-42.342 2.002-2.024 4.781 41.846zm-38.545-47.906 3.753-2.597 48.747.352-2.45 2.521-50.05-.276zm55.707.226-3.564-.028 2.456-2.478 2.498.013.001 1.419-1.391 1.074zm1.39-4.21-.846.017.857-.862-.011.845zm.047-3.01-2.99 3.049-47.968-.328 4.849-3.34 46.132.421-.023.198zm.04-1.91-43.688-.408 4.834-3.319 38.868.472-.014 3.255zm-36.443-5.417 4.776-3.295 31.71.451.001 3.28-36.487-.436zm36.536-4.539-29.315-.425 4.719-3.242 24.602.389-.006 3.278zm.06-5-22.251-.338 4.743-3.273 17.509.329-.001 3.282zm.043-4.962-15.181-.286 4.658-3.226 10.536.241-.013 3.271zm.025-5.01-8.138-.154 4.622-3.191 3.552.101-.036 3.244zm-1.127-5.024 1.184-.792.012.855-1.196-.063zm-2.917-.032-10.35-.248 3.898-3.172 10.567.258.006.329-4.121 2.833zm4.148-4.894-8.59-.204 3.867-3.182 4.76.129-.037 3.257zm.06-4.971-2.78-.063 2.79-2.309-.01 2.372zm.069-4.933-36.097-1.095v-.001h-.027l-.122-.004 1.874-3.372 34.385 1.209-.013 3.263zm1.137 48.018 4.312.067-2.386 1.883-1.929-.017.003-1.933zm99.688 6.266-97.341-.474-2.344-.38 2.727-2.129 41.503.626 63.792.566c-2.817.617-5.578 1.19-8.337 1.791zm14.006-3.008-69.462-1.085-39.68-.353 2.337-1.85 38.419.754 75.587.98c-2.412.519-4.789 1.038-7.201 1.554zm12.481-2.71-80.837-1.536-36.628-.499 2.313-1.761 35.39.81 86.96 1.429c-2.399.51-4.798 1.042-7.198 1.557zm12.023-2.625-91.778-2.109-33.55-.545 2.25-1.779 32.352.854 91.893 1.896c2.048.049 4.047.071 6.083.102-2.396.513-4.813 1.075-7.25 1.581zm11.527-2.524c-3.428-.111-6.903-.255-10.33-.31l-91.877-2.479-30.541-.614 2.204-1.724 29.388.896 91.892 2.255c5.58.132 11.18.212 16.718.364-2.439.528-4.91 1.054-7.454 1.612zm11.18-2.46c-6.827-.246-13.63-.487-20.432-.688l-91.853-2.786-27.559-.674 2.171-1.728 26.417.918 91.855 2.581c9.049.269 18.089.467 27.106.685a953.237 953.237 0 0 1-7.705 1.692zm10.798-2.398c-10.045-.378-20.097-.797-30.159-1.113l-91.863-3.156-24.572-.711 2.153-1.664 23.465.879 91.875 2.967c12.347.411 24.67.726 37.061 1.077-2.55.553-5.203 1.114-7.96 1.721zm10.548-2.312c-13.189-.575-26.412-1.18-39.647-1.64l-91.818-3.5-21.644-.687 2.093-1.662 20.59.846 91.847 3.316c15.523.589 31.129 1.037 46.667 1.54a524.077 524.077 0 0 0-8.088 1.787zm10.166-2.28c-16.224-.769-32.484-1.55-48.703-2.203l-91.835-3.859-18.741-.668 2.044-1.616 17.723.827 91.827 3.665c17.092.698 34.187 1.258 51.291 1.858.17.405.315.786.409 1.135-1.274.255-2.598.556-4.015.861zm5.624-1.465a26.333 26.333 0 0 0-.447-1.28l-.831-20.904c.481-.095.944-.19 1.421-.246l.645 22.268a4.933 4.933 0 0 0-.788.162zm3.147-.703-.878-22.136c.481-.095.958-.196 1.411-.273l.63 22.142c-.384.1-.777.178-1.163.267zm3.531-.804-.88-21.996c.497-.099.961-.175 1.463-.263l.607 21.975c-.365.094-.785.182-1.19.284zm3.533-.826-.86-21.844c.487-.085.998-.149 1.457-.246l.596 21.813c-.353.077-.732.168-1.193.277zm3.545-1.023-.838-21.458c.433-.105.974-.162 1.438-.267l.595 21.147c-.397.245-.81.396-1.195.578zm3.45-2.608-.787-19.513a21.376 21.376 0 0 0 1.509-.286l.473 17.921a11.385 11.385 0 0 1-1.195 1.878zm3.298-7.515-.497-12.649c.323-.064.687-.123 1.032-.188.04.612.13 1.289.176 1.831a35.806 35.806 0 0 1-.711 11.006zm34.656-27.45a14861.565 14861.565 0 0 1-33.383 5.787c-.632-4.743-1.415-10.17-2.316-15.511l35.699 9.724zm-35.083 6.112c-.114.018-.231.04-.372.066l-.149-4.154c.177 1.411.37 2.743.521 4.088zm-2.326.392c-.529.099-1.062.161-1.591.285l-.553-14.813a212.44 212.44 0 0 0-.16-2.745l1.851.5c.004.833.018 1.711.058 2.567l.395 14.206zm-.432-18.962c-.008.142-.012.269-.024.393l-1.895-.503c-.172-3.844-.382-7.646-.585-11.452.866 3.299 1.72 7.3 2.504 11.562zm44.237 13.038c7.028-1.214 13.781-2.397 19.959-3.469 15.498-2.658 23.964-3.704 28.581-3.977l-124.249 22.478c-.481-.571-.955-1.069-1.557-1.376a36.666 36.666 0 0 1-1.078-.525c19.858-2.908 50.843-8.35 78.344-13.131zm-47.393 6.525c-.503.101-.999.195-1.523.256l-.619-15.622c-.038-1.167-.115-2.314-.162-3.495l1.835.48c.032 1.124.048 2.229.064 3.322l.405 15.059zm-1.904-38.707c.252.657.513 1.319.806 1.999.145.351.307.77.422 1.19.067 5.122.147 10.249.25 15.402l-1.933-.552a3061.39 3061.39 0 0 0-1.108-21.66 64.753 64.753 0 0 1 1.563 3.621zm-1.633 39.311c-.501.106-1.018.196-1.535.245l-.643-16.483c-.058-1.412-.136-2.803-.198-4.198l1.885.492c.022 1.345.03 2.709.058 4.039l.433 15.905zm-.831-44.693c.118 7.676.21 15.33.355 22.964l-1.919-.518c-.419-8.447-.88-16.915-1.333-25.362 1.157.653 2.099 1.628 2.897 2.916zm-3.193 28.509.471 16.794c-.515.077-1.028.153-1.518.266l-.689-17.388c-.074-1.633-.174-3.261-.248-4.896l1.915.513c.04 1.588.023 3.157.069 4.711zm-.634-31.977c.06.023.126.097.216.118.096 8.456.237 16.9.38 25.362l-1.976-.546c-.407-8.4-.848-16.805-1.293-25.221.979-.048 1.873.041 2.673.287zm-2.453 49.374c-.504.094-1.031.156-1.499.237l-.722-18.208c-.096-1.885-.206-3.768-.294-5.643l1.931.511c.064 1.809.036 3.627.105 5.466l.479 17.637zm-.938-49.595c.122 8.244.243 16.491.395 24.731l-2.02-.571c-.375-7.832-.773-15.705-1.176-23.536 1.028-.34 1.952-.538 2.801-.624zm-2.599 50.166c-.513.091-1.04.177-1.541.242l-.718-19.045c-.072-2.128-.226-4.242-.336-6.376l1.936.546c.076 2.042.069 4.096.147 6.153l.512 18.48zm-.943-49.323c.086 7.632.22 15.264.357 22.904l-2.02-.544c-.384-7.1-.751-14.156-1.1-21.254a29.586 29.586 0 0 1 2.763-1.106zm-3.146 30.586.521 19.308c-.509.09-.988.189-1.507.283l-.781-19.915c-.102-2.355-.238-4.738-.334-7.113l2.002.569c.029 2.288.041 4.568.099 6.868zm-.401-29.098c.084 6.819.197 13.63.298 20.449l-2.06-.545c-.303-6.17-.603-12.335-.96-18.538a54.135 54.135 0 0 1 2.722-1.366zm-2.631 48.999c-.513.077-.986.163-1.499.224l-.802-20.691c-.112-2.608-.285-5.227-.401-7.812l2.026.537c.038 2.544.042 5.061.102 7.586l.574 20.156zm-.928-47.157c.072 5.887.17 11.756.256 17.645l-2.07-.59c-.258-5.155-.537-10.352-.794-15.51.891-.562 1.799-1.057 2.608-1.545zm-2.628 47.727c-.503.068-.996.156-1.489.231l-.837-21.564a475.344 475.344 0 0 0-.437-8.522l2.055.579c.046 2.754.066 5.54.118 8.285l.59 20.991zm-.91-45.612c.065 4.877.138 9.698.231 14.543l-2.112-.571c-.225-4.074-.42-8.165-.647-12.271a61.207 61.207 0 0 1 2.528-1.701zm-2.633 46.164c-.495.058-1.002.123-1.495.224l-.848-22.346c-.142-3.086-.325-6.157-.47-9.23l2.048.552c.036 2.992.074 5.991.13 8.98l.635 21.82zm-.92-43.761c.086 3.743.142 7.459.18 11.157l-2.124-.551c-.162-2.911-.29-5.832-.471-8.761.817-.621 1.626-1.271 2.415-1.845zm-2.638 44.293c-.501.059-.994.142-1.473.191l-.901-23.114a653.703 653.703 0 0 0-.517-9.95l2.097.565c.044 3.256.082 6.472.16 9.726l.634 22.582zm-.87-41.586c.03 2.5.07 4.996.124 7.513l-2.192-.61c-.084-1.62-.147-3.285-.237-4.96.754-.661 1.516-1.343 2.305-1.943zm-2.703 41.588c-.449-.141-.874-.279-1.349-.416a.35.35 0 0 0-.124-.06l-.928-22.7c-.132-3.579-.331-7.117-.525-10.687l2.124.582c.042 3.474.088 6.954.182 10.404l.62 22.877zm-.821-38.596c.01 1.178.02 2.377.05 3.545l-2.21-.605c-.022-.327-.028-.623-.042-.952.728-.656 1.428-1.343 2.202-1.988zm-4.491 4.113.92.231c.052 3.719.088 7.431.184 11.122l.607 22.05c-.467-.106-.966-.232-1.517-.358l-.842-21.984a747.918 747.918 0 0 0-.504-9.934 39.74 39.74 0 0 0 1.152-1.127zm-2.615 2.595c.024 2.831.05 5.648.124 8.507l.597 21.458c-.519-.099-.966-.22-1.507-.302l-.827-21.486c-.08-2.087-.229-4.116-.325-6.201.644-.662 1.256-1.319 1.938-1.976zm-3.535 3.652c.056 1.549.03 3.073.08 4.595l.589 20.939c-.499-.099-.991-.197-1.495-.3l-.823-20.95c-.046-.793-.086-1.547-.124-2.332.583-.639 1.191-1.297 1.773-1.952zm-3.514 3.885c.016.161-.01.307.006.45l.565 20.513c-.487-.125-1-.216-1.499-.345l-.735-18.711c.551-.636 1.103-1.27 1.663-1.907zm-3.458 4.042.443 16.19a53.309 53.309 0 0 1-1.524-.305l-.527-13.998a99.43 99.43 0 0 1 1.608-1.887zM524 196.773l.321 11.331c-.541-.1-1.018-.189-1.533-.298l-.369-9.073c.497-.616 1.026-1.299 1.581-1.96zm-3.458 4.409.181 6.249c-.128-.024-.24-.091-.351-.087a15.266 15.266 0 0 0-1.201-.201l-.144-3.993c.462-.621.963-1.296 1.515-1.968zm-3.461 4.584.022.935c-.204-.008-.382-.056-.631-.102.204-.245.38-.478.609-.833zm-6.655 1.422c2.785.584 6.069 1.21 9.631 1.885 9.419 1.813 20.113 3.879 23.998 5.164l1.774.572c2.174.689 3.815 1.201 5.075 2.016l-113.423-8.157 13.372-10.495c19.827 2.942 42.536 6.417 59.573 9.015zm-59.948-10.749c-7.025-1.035-13.796-2.037-19.839-2.917l21.712-22.097c8.42 1.215 17.725 2.163 26.981 2.351l-28.854 22.663zm107.881-82.896-4.423 1.342-73.119 57.497c-2.643-.724-12.519-3.296-24.689-4.96l16.961-17.275 28.362-19.56-5.317 1.615-16.726 11.525 9.083-9.25-3.375 1.022 70.683-71.921 3.306-.934-70.608 71.851 7.638-2.294L667.979 13.805l5.084-1.454L501.45 130.586l52.486-15.702L681.898 14.295l4.282-1.193-127.821 100.441zM678.727 6.476c-1.635.505-3.365 1.026-5.137 1.601L3.175 234.142l.216.806-.233-.801a1.04 1.04 0 0 1-1.221-.623c-.075-.26-.016-.518.041-.744.141-.233.345-.4.618-.509l63.101-21.564.002.008.051-.02 110.084-37.58.019.018.038-.036L651.496 10.7c21.077-5.642 31.227-6.742 34.92-6.774-1.779.716-4.866 1.663-7.689 2.55z"/><path d="m241.779 231.515.204.01c-.083-9.434-2.978-16.052-3.186-16.524-3.164-7.205-8.294-12.225-14.208-12.832a13.225 13.225 0 0 0-4.746.418c-8.531 2.413-15.406 13.177-16.785 26.311-.011.102-.032.503-.042.603v.008c-.227 1.568-.108 6.931-.1 7.035.912 12.542 7.274 22.532 15.94 23.565 2.173.252 4.339.087 6.459-.51 9.176-2.588 15.87-12.667 16.643-25.13.059-.964.048-1.957.024-2.943l-.203-.011zm-1.168 2.955c-.73 11.951-7.061 21.573-15.759 24.027-1.978.543-4.003.674-6.017.465-5.081-.614-9.281-4.607-11.959-10.425 2.62 5.072 6.481 8.538 11.108 9.254 2.137.279 4.238.152 6.314-.44 8.279-2.321 14.411-11.389 15.2-22.588.071-.778.084-1.53.086-2.291-.035-1.467-.334-9.903-2.657-14.999l.013-.007-.013.005c-1.31-3.23-2.967-6.057-4.977-8.227l-.789.885c1.788 1.884 3.245 4.369 4.425 7.17l.011.015s.068.156.174.424l.064.153-.003.001c.659 1.697 2.488 7.035 2.549 13.915l.013-.001c-.016.97.006 1.9-.076 2.861-.788 10.696-6.563 19.345-14.339 21.53-1.902.55-3.846.662-5.808.362-4.585-.648-8.347-4.37-10.744-9.709 2.282 4.574 5.72 7.758 9.852 8.521 2.065.355 4.15.275 6.168-.287 7.466-2.085 12.865-9.979 13.762-20.105.084-.871.083-1.719.085-2.58-.001-.09-.113-8.723-2.783-14.693-.053-.12-.105-.243-.159-.362a4.076 4.076 0 0 1-.032-.072c-1.105-2.399-2.447-4.528-4.025-6.177l-.788.861c1.573 1.671 2.906 3.864 3.984 6.315h.013s.072.156.184.427l.023.049-.002.001c.601 1.471 2.341 6.331 2.399 13.197l.008-.001c0 .095-.004.19-.004.285 0 .06.003.117.003.178l-.005.001a30.763 30.763 0 0 1-.095 2.423c-.82 9.642-5.892 17.108-12.893 19.055a12.195 12.195 0 0 1-5.624.296c-4.119-.726-7.461-4.159-9.582-9.029 2.034 4.112 5.037 7.035 8.663 7.826 1.984.449 4.037.393 5.986-.152 6.541-1.844 11.376-8.785 12.334-17.675.105-.98.124-1.926.122-2.87-.017-1.437-.231-8.124-2.582-13.68-1.004-2.228-2.26-4.232-3.766-5.743l-.812.905c1.302 1.323 2.386 3.078 3.317 5.051l.014-.005s2.519 4.469 2.635 13.288l.01-.001-.005.595c0 .169.006.327.004.499l-.013.001c-.012.604-.04 1.22-.132 1.869-1.178 8.318-5.376 14.892-11.437 16.609-1.765.455-3.617.531-5.415.142-3.649-.8-6.597-3.956-8.368-8.346 1.704 3.64 4.225 6.282 7.381 7.13 1.947.514 3.919.507 5.849-.028 5.605-1.586 9.901-7.529 10.891-15.173.148-1.072.181-2.102.188-3.124.007-2.258-.192-8.021-2.179-12.238a.39.39 0 0 0-.02.009c-.95-2.101-2.125-3.965-3.545-5.369l-.836.923c1.095 1.116 2.03 2.533 2.829 4.14l.014-.004s2.269 3.766 2.506 12.533h.003l-.001.062c.004.157.012.302.015.462l-.026.005c-.014.8-.036 1.605-.132 2.424-.929 7.162-4.874 12.745-10.053 14.169-1.705.496-3.436.505-5.181.039-2.677-.729-4.844-2.916-6.412-5.905 1.387 2.268 3.206 3.959 5.355 4.688 1.92.632 3.799.661 5.671.138 4.814-1.336 8.472-6.213 9.488-12.728.144-.924.193-1.818.235-2.725-.008-.853-.138-7.654-2.151-11.977l-.008.003c-.815-1.714-1.805-3.263-3.035-4.378l-.81.904c.808.777 1.528 1.749 2.154 2.846l.002-.001s2.778 4.298 2.635 12.117l.013-.001c-.03.982-.038 2.011-.203 3.002-.961 6.022-4.281 10.543-8.635 11.792-1.628.455-3.286.395-4.946-.169-2.235-.714-4.026-2.648-5.339-5.217 1.117 1.85 2.49 3.272 4.206 3.963 1.789.772 3.703.917 5.517.392 3.93-1.094 7.018-5.044 8.061-10.337.184-.892.265-1.795.305-2.686.014-.474.157-7.236-2.511-12.18-.593-1.011-1.269-1.916-2.069-2.631l-.815.867c.746.665 1.367 1.551 1.928 2.521l.005-.002s.048.082.126.23c.057.102.117.2.173.304l-.017.008c.639 1.317 2.135 5.008 1.985 10.314l.017-.002-.025.406v.005c-.053.862-.101 1.723-.28 2.589-.972 4.851-3.731 8.464-7.208 9.42-1.56.454-3.184.332-4.714-.334-1.557-.665-2.809-1.978-3.812-3.726.725 1.036 1.602 1.894 2.602 2.435 1.7.932 3.559 1.182 5.336.673 3.116-.861 5.62-3.857 6.656-7.993.249-.956.352-1.924.435-2.897.046-.722.279-6.026-2.302-11.045-.488-.79-1.042-1.497-1.666-2.019l-.848.887c.556.45 1.046 1.047 1.498 1.693l.003-.001s.067.091.171.253c.038.057.079.112.117.17l-.01.004c.637 1.074 2.13 4.232 1.845 9.698h.019l-.039.447v.003c-.072.83-.152 1.675-.376 2.51-.938 3.711-3.116 6.391-5.836 7.123-1.474.434-2.998.222-4.423-.562-.969-.548-1.813-1.416-2.492-2.489.35.423.726.799 1.151 1.109 1.595 1.183 3.44 1.571 5.184 1.096 2.329-.663 4.248-2.748 5.253-5.719.342-1.009.535-1.996.668-2.994.049-.651.42-6.678-2.207-10.251a7.586 7.586 0 0 0-1.225-1.319l-.87.916a.217.217 0 0 0 .096.027c.378.3.657.689.929 1.073l.003-.002s2.661 3.212 2.033 9.227l.011-.002c-.016.138-.035.278-.052.417l-.005.05h-.001c-.105.829-.241 1.662-.502 2.446-.891 2.609-2.518 4.412-4.463 4.961-1.402.386-2.842.091-4.128-.885-.238-.171-.358-.476-.552-.69 1.257.918 2.699 1.245 4.089.85 1.596-.433 2.946-1.709 3.846-3.552.539-1.088.78-2.235.966-3.423.205-1.492.513-5.756-1.97-8.995a6.39 6.39 0 0 0-.901-.784l-.824.898a4.888 4.888 0 0 1 .589.494c.03.029.062.055.09.084l-.006.003c.737.787 2.51 3.287 1.767 8.386l.015-.002c-.018.115-.041.226-.061.34l-.013.097h-.004c-.152.831-.358 1.619-.732 2.351-.749 1.549-1.838 2.584-3.08 2.935-1.044.294-2.128.062-3.051-.652.778.352 1.621.479 2.493.231.863-.245 1.711-.827 2.349-1.662.725-.913 1.18-2.081 1.471-3.294.128-.766.801-5.596-1.993-8.578-.067-.073-.135-.15-.182-.2-.056-.059-1.246 1.501-3.261 5.209l-.005.04c.787-.096 1.301.619 1.301.619.746 1.026.675 1.946.676 2.721.002.777-.402 1.542-.402 1.542-.789 1.541-2.013 1.397-2.013 1.397-1.142.004-1.555-1.315-1.555-1.315-.686-2.169.56-3.978.56-3.977.707-.978 1.365-.984 1.365-.984.017-.003.033 0 .05-.003l.023-.041.679-5.866c-.102.014-.206-.009-.311.012.098-.075.239-.154.36-.223l.155-1.32c-.095.023-.201.019-.307.032-.391.11-.797.266-1.174.526.49-.43.995-.748 1.545-1.004l.179-1.381c-1.015.273-1.93.914-2.769 1.679.823-1.033 1.827-1.73 2.829-2.215l.214-1.414c-1.326.431-2.558 1.296-3.59 2.458 1.04-1.456 2.298-2.561 3.691-3.201l.144-1.318c-1.605.613-3.129 1.655-4.385 3.202 1.272-1.843 2.796-3.21 4.519-4.031l.171-1.395c-1.897.733-3.68 2.103-5.17 4.05 1.502-2.27 3.319-3.92 5.269-4.852l.18-1.388c-2.293.918-4.414 2.651-6.143 5.118 1.759-2.779 3.885-4.821 6.263-5.961l.194-1.41c-2.56 1.055-4.891 2.994-6.802 5.695 1.939-3.022 4.314-5.288 6.918-6.571l.191-1.376c-2.888 1.17-5.512 3.394-7.617 6.472 2.123-3.411 4.78-5.953 7.723-7.33l.177-1.419c-3.286 1.361-6.267 4.006-8.615 7.659 2.818-4.798 6.612-8.203 10.834-9.4 1.425-.381 2.846-.527 4.279-.401 5.868.602 10.853 5.901 13.77 13.357l.001-.001.02.053c.016.041.034.08.05.122l-.005.002c.37 1.025 2.366 6.927 2.508 14.694l.015-.001c-.002.942.015 1.833-.049 2.796zm-24.86 2.916c.14-.039.259-.081.372-.167 1.344-.68 2.254-2.07 2.749-3.696h.014c-.246.958-.616 1.874-1.196 2.604-.508.633-1.113 1.062-1.741 1.255-.067.021-.133.01-.198.004z"/></svg>