<svg xmlns="http://www.w3.org/2000/svg" width="218" height="55.42" xml:space="preserve"><path d="M.004 39.378c0 .446-.026.797.089 1.212 2.358 9.905 13.594 16.157 26.114 14.588 14.284-1.79 27.18-5.003 45.067-9.97 9.536-2.648 28.081-9.924 30.793-11.462 0 .007.106-.056.106-.048.261-.188.409-.297.748-.457.357-.169.512-.335.882-.526.319-.199.601-.316.875-.4.303-.093.788.162 1.483.213 6.163.487 13.141-4.136 18.909-4.159 2.469-.305 22.718-1.619 22.718-1.619 13.208-.746 29.064-1.454 38.962-1.56 1.964-.006 3.845-.04 5.639-.045 7.445-.052 13.578-.111 17.98-.723.138-.019 3.573-.261 5.988-1.988.808-.582 1.491-1.359 1.629-2.562.042-.369.015-2.078-.439-3.113-.526-1.334-1.37-3.269-3.351-5.662-1.353-2.023-5.865-5.111-7.46-5.977-2.203-1.274-4.845-2.336-7.348-3.18-1.421-.479-8.745-2.14-12.822-1.899-1.662-.196-8.437.341-9.561.474-3.146.371-9.199 1.696-12.647 2.671-5.236 1.447-10.908 3.424-17.317 5.982-.734.267-1.435.579-2.129.835L120.335 21c-.789.391-3.916 1.89-4.403 2.182l-.645.356c-.001.001-2.164.915-2.663.746-.085-.029-.853-.539-1.137-.656-2.036-1.176-4.377-.989-5.055-.802-1.199.332-2.275.916-2.68 1.254-.831.696-1.324 1.711-1.338 1.774-.044.186-.181.531-.189.654-4.413 2.428-25.302 3.867-33.815 4.304-11.743.603-27.824.282-37.338-.282l.024-.007c-.56-.013-1.303-.026-1.948-.131-.778-.035-.778-.035-1.306-.085-.633-.059-1.805-.145-2.545-.254-4.722-.443-7.939-.882-12.458-.543-2.987.225-13.073 1.069-12.835 9.868m24.308 13.503c-5.824.517-10.87-.323-14.738-2.31 5.978.428 12.313.364 18.589-.311.026.01.059.004.078-.002.318-.1.532-.42.489-.735-.033-.372-.357-.645-.711-.592-6.994.725-14.153.826-20.659.228-.729-.521-1.34-1.148-1.915-1.769 7.884.449 21.055.239 35.077-1.862a.645.645 0 0 0 .1.007c.313-.107.532-.388.476-.75-.05-.39-.373-.625-.763-.576-14.659 2.194-28.411 2.289-36.033 1.733-.411-.581-.827-1.208-1.136-1.88 8.745.852 35.167.56 58.306-5.022l.005-.001a.69.69 0 0 0 .501-.821c-.085-.362-.437-.576-.842-.503-23.562 5.712-50.602 5.858-58.481 4.954-.233-.6-.49-1.173-.653-1.841-.026-.168-.002-.316-.03-.482 5.944.286 18.407.426 29.488-.591.022-.007.065-.008.082-.024.331-.081.547-.368.498-.682-.032-.372-.352-.69-.736-.631-11.083 1.007-23.591.891-29.417.596-.123-3.271 1.759-5.484 5.927-6.653 3.308-.934 8.711-.788 13.936-.195 11 1.25 31.014 1.543 43.171.814 12.299-.737 30.204-2.606 37.454-4.794.007.078.782 2.123 1.211 2.671.023.028.027.043.045.064-5.744 3.553-18.25 8.608-33.422 12.936-19.972 5.699-40.89 8.58-45.897 9.024zm102.253-26.412c-1.307.139-2.482.311-3.549.451a36.271 36.271 0 0 0 2.622-1.111l1.112.631c-.023.004-.133.024-.185.029zm4.914-.422-2.687-1.559a48.449 48.449 0 0 1 2.373-.984l3.955 2.252a78.702 78.702 0 0 0-3.641.291zm8.213-.633-5.569-3.164c1.071-.433 2.175-.913 3.346-1.35l6.844 4.219c-1.61.111-3.113.194-4.621.295zm8.765-.55-8.246-5.09c.946-.356 1.887-.773 2.93-1.171.064.168.156.317.305.439l9.32 5.587c-1.461.082-2.908.147-4.309.235zm67.72-5.03c-.047.338-.149 1.374-2.969 2.161-2.875.806-7.532 1.055-13.33 1.163L185.5 14.507c-.37-.18-.801-.09-1.01.289a.684.684 0 0 0 .265.999l12.322 7.398c-1.496.034-3.022.061-4.632.081-.417-.024-.812-.017-1.231-.014l-17.796-10.827a.835.835 0 0 0-1.093.28.798.798 0 0 0 .263 1.145l15.554 9.426c-.479.016-.903.01-1.366.016-1.291.01-2.725.054-4.172.094l-17.301-10.358c-.43-.254-1.001-.102-1.218.324-.271.415-.145.961.319 1.22l14.869 8.886c-1.775.035-3.601.09-5.475.159l-15.69-9.109c-.435-.276-1.05-.107-1.294.357-.297.457-.117 1.05.358 1.317l12.997 7.584c-1.625.078-3.276.124-4.913.201l-13.099-7.826c-.524-.279-1.16-.124-1.448.369-.297.491-.118 1.131.387 1.435l10.346 6.208c-1.576.051-3.139.15-4.698.208l-11.222-6.732c.081-.054.17-.079.257-.123 21.108-8.252 42.737-14.648 57.974-5.288.142.092.35.162.558.103a.644.644 0 0 0 .356-.303c.214-.316.112-.763-.197-.929-15.741-9.702-37.782-3.25-59.175 5.166-11.583 4.543-17.978 7.265-24.736 10.153l-5.745 3.312a2.078 2.078 0 0 0-.173.064c-.738.183-1.397.371-2.015.523-.859.255-1.669.465-2.53.619-1.61.37-3.342-.035-4.504-.918-.473-.417-.876-.88-1.083-1.516-.236-.445-.052-1.482-.018-1.631.466-1.314 1.466-1.939 2.299-2.19 1.635-.437 3.65.005 4.941 1.057l.244.153c.231.08.931.243 2.212-.118.746-.204 3.869-2.324 4.752-2.781 2.613-1.39 8.317-3.862 28.76-12.029 6.353-2.525 11.931-4.451 17.108-5.911 13.508-3.788 23.687-4.122 34.09-1.14 11.385 3.343 17.744 11.505 17.28 15.924zM25.297 30.053" id="图层_1"/></svg>